<svg width="64" height="64" viewBox="0 0 64 64" fill="none" xmlns="http://www.w3.org/2000/svg">
<path d="M31.9999 52.142C43.1241 52.142 52.1419 43.1241 52.1419 32C52.1419 20.8759 43.1241 11.858 31.9999 11.858C20.8758 11.858 11.8579 20.8759 11.8579 32C11.8579 43.1241 20.8758 52.142 31.9999 52.142Z" fill="url(#paint0_linear_525_217)" stroke="url(#paint1_linear_525_217)" stroke-width="1.32749"/>
<path fill-rule="evenodd" clip-rule="evenodd" d="M32 0C31.0395 0 30.2608 0.778634 30.2608 1.73913V7.30435C30.2608 8.26484 31.0395 9.04348 32 9.04348C32.9604 9.04348 33.7391 8.26484 33.7391 7.30435V1.73913C33.7391 0.778635 32.9604 0 32 0ZM31.9999 54.9565C31.0395 54.9565 30.2608 55.7352 30.2608 56.6957V62.2609C30.2608 63.2214 31.0395 64 31.9999 64C32.9604 64 33.7391 63.2214 33.7391 62.2609V56.6957C33.7391 55.7352 32.9604 54.9565 31.9999 54.9565ZM45.6243 4.92375C46.1045 4.09193 47.1682 3.80693 48 4.28718C48.8318 4.76743 49.1168 5.83106 48.6365 6.66288L45.8539 11.4825C45.3737 12.3143 44.31 12.5993 43.4782 12.1191C42.6464 11.6388 42.3614 10.5752 42.8417 9.74337L45.6243 4.92375ZM20.5217 51.8809C19.6899 51.4007 18.6263 51.6857 18.146 52.5175L15.3634 57.3371C14.8832 58.1689 15.1682 59.2326 16 59.7128C16.8318 60.1931 17.8954 59.9081 18.3757 59.0763L21.1583 54.2566C21.6385 53.4248 21.3535 52.3612 20.5217 51.8809ZM57.3371 15.3634C58.1689 14.8832 59.2325 15.1682 59.7128 16C60.193 16.8318 59.908 17.8954 59.0762 18.3757L54.2566 21.1583C53.4248 21.6385 52.3612 21.3535 51.8809 20.5217C51.4007 19.6899 51.6857 18.6263 52.5175 18.146L57.3371 15.3634ZM12.1191 43.4783C11.6388 42.6465 10.5752 42.3614 9.74337 42.8417L4.92374 45.6243C4.09193 46.1046 3.80693 47.1682 4.28718 48C4.76743 48.8318 5.83106 49.1168 6.66287 48.6366L11.4825 45.854C12.3143 45.3737 12.5993 44.3101 12.1191 43.4783ZM62.2608 30.2609C63.2213 30.2609 64 31.0395 64 32C64 32.9605 63.2213 33.7391 62.2608 33.7391H56.6956C55.7351 33.7391 54.9565 32.9605 54.9565 32C54.9565 31.0395 55.7351 30.2609 56.6956 30.2609H62.2608ZM9.04348 32C9.04348 31.0395 8.26484 30.2608 7.30435 30.2608H1.73913C0.778635 30.2608 4.19845e-08 31.0395 0 32C-4.19845e-08 32.9605 0.778633 33.7391 1.73913 33.7391H7.30435C8.26484 33.7391 9.04348 32.9605 9.04348 32ZM59.0762 45.6243C59.908 46.1045 60.193 47.1682 59.7128 48C59.2326 48.8318 58.1689 49.1168 57.3371 48.6366L52.5175 45.8539C51.6857 45.3737 51.4007 44.3101 51.8809 43.4782C52.3612 42.6464 53.4248 42.3614 54.2566 42.8417L59.0762 45.6243ZM12.1191 20.5217C12.5993 19.6899 12.3143 18.6263 11.4825 18.146L6.66287 15.3634C5.83106 14.8832 4.76742 15.1682 4.28718 16C3.80693 16.8318 4.09193 17.8954 4.92374 18.3757L9.74336 21.1583C10.5752 21.6385 11.6388 21.3535 12.1191 20.5217ZM48.6365 57.3371C49.1168 58.1689 48.8318 59.2325 48 59.7128C47.1682 60.193 46.1045 59.908 45.6243 59.0762L42.8417 54.2566C42.3614 53.4248 42.6464 52.3612 43.4782 51.8809C44.31 51.4007 45.3737 51.6857 45.8539 52.5175L48.6365 57.3371ZM20.5217 12.119C21.3535 11.6388 21.6385 10.5752 21.1583 9.74335L18.3757 4.92373C17.8954 4.09191 16.8318 3.80691 16 4.28716C15.1682 4.76741 14.8832 5.83104 15.3634 6.66286L18.146 11.4825C18.6263 12.3143 19.6899 12.5993 20.5217 12.119Z" fill="url(#paint2_linear_525_217)"/>
<defs>
<linearGradient id="paint0_linear_525_217" x1="42.9565" y1="15.3044" x2="25.2773" y2="51.6303" gradientUnits="userSpaceOnUse">
<stop offset="0.182844" stop-color="#FFE600"/>
<stop offset="0.980542" stop-color="#F09000"/>
</linearGradient>
<linearGradient id="paint1_linear_525_217" x1="22.0504" y1="8.06725" x2="49.479" y2="73.9497" gradientUnits="userSpaceOnUse">
<stop stop-color="#FFE600"/>
<stop offset="1" stop-color="#9C8D00"/>
</linearGradient>
<linearGradient id="paint2_linear_525_217" x1="55.4782" y1="8.34782" x2="7.99994" y2="64" gradientUnits="userSpaceOnUse">
<stop stop-color="#FFE600"/>
<stop offset="1" stop-color="#AA9900"/>
</linearGradient>
</defs>
</svg>
